<svg xmlns="http://www.w3.org/2000/svg" viewBox="0 0 586.15 259.98"><defs><style>.a653d401-126a-48cb-b55e-c15e09e8c76f,.a901aee3-f65a-4d9e-8c34-6211026b43ca,.aadb771b-a82b-44d2-ba5f-eefe2a117f66,.b1e0bd30-d868-4ba1-a57e-5d23571deaa1,.b402c760-7f7c-4827-8d3f-4c582e942a49,.b79f37fe-964d-4024-af62-8b3a4fd7ac16,.bab51595-1e14-4878-841b-ff8cbfa56758{fill:#357932;}.b02aa90e-428f-4f2a-b1d8-581248aa4e45,.e6c91783-9090-4a18-9aa9-47b822283cfa,.f2c0789e-2fc5-45dc-8406-bb72b8f5375a{fill:none;stroke:#1f5a29;stroke-miterlimit:10;}.e6c91783-9090-4a18-9aa9-47b822283cfa,.f2c0789e-2fc5-45dc-8406-bb72b8f5375a{stroke-linecap:round;}.f2c0789e-2fc5-45dc-8406-bb72b8f5375a{stroke-dasharray:1.91 1.91;}.a7ce4fe3-b759-47b7-9919-b5e2a4907498,.a901aee3-f65a-4d9e-8c34-6211026b43ca,.aadb771b-a82b-44d2-ba5f-eefe2a117f66,.b1e0bd30-d868-4ba1-a57e-5d23571deaa1,.b402c760-7f7c-4827-8d3f-4c582e942a49,.b79f37fe-964d-4024-af62-8b3a4fd7ac16,.bab51595-1e14-4878-841b-ff8cbfa56758{isolation:isolate;}.aadb771b-a82b-44d2-ba5f-eefe2a117f66,.b1e0bd30-d868-4ba1-a57e-5d23571deaa1,.b79f37fe-964d-4024-af62-8b3a4fd7ac16,.bab51595-1e14-4878-841b-ff8cbfa56758{font-size:13.5px;}.a901aee3-f65a-4d9e-8c34-6211026b43ca,.aadb771b-a82b-44d2-ba5f-eefe2a117f66,.b1e0bd30-d868-4ba1-a57e-5d23571deaa1,.b402c760-7f7c-4827-8d3f-4c582e942a49,.b79f37fe-964d-4024-af62-8b3a4fd7ac16,.bab51595-1e14-4878-841b-ff8cbfa56758{font-family:SofiaPro-Bold, Sofia Pro;font-weight:700;}.b1e0bd30-d868-4ba1-a57e-5d23571deaa1{letter-spacing:-0.04em;}.b79f37fe-964d-4024-af62-8b3a4fd7ac16{letter-spacing:-0.01em;}.e37bb024-f078-4b99-9f1a-9ceab1fb7bde{letter-spacing:0em;}.bab51595-1e14-4878-841b-ff8cbfa56758{letter-spacing:-0.06em;}.a901aee3-f65a-4d9e-8c34-6211026b43ca,.b402c760-7f7c-4827-8d3f-4c582e942a49{font-size:13.5px;}.a901aee3-f65a-4d9e-8c34-6211026b43ca{letter-spacing:-0.01em;}</style></defs><g id="b204b6d5-aec8-4976-ad4c-9fd41a525c75" data-name="Layer 3"><path class="a653d401-126a-48cb-b55e-c15e09e8c76f" d="M297.57,212.62a2.6,2.6,0,1,0,2.6,2.6A2.59,2.59,0,0,0,297.57,212.62Zm0,3.77a1.17,1.17,0,1,1,1.17-1.17A1.17,1.17,0,0,1,297.57,216.39Z" transform="translate(-127.87 -128.68)"/></g><g id="f7c3eba3-7b82-42d8-9c5c-0167e4c52cce" data-name="Layer 2"><line id="b49fda23-502a-447d-a825-53ac4c0702c8" data-name="Line 23" class="e6c91783-9090-4a18-9aa9-47b822283cfa" x1="345.84" y1="257.29" x2="291.27" y2="249.16"/><path id="b0d37049-7c07-48c8-9c8c-8f6171c2c470" data-name="Path 23" class="e6c91783-9090-4a18-9aa9-47b822283cfa" d="M450.2,360.47l-14.29-1.94s-18.14,20.87-19.82,22.38a31.57,31.57,0,0,1-23,7.12c-12.17-1.32-256.37-35.46-264.6-36.6a.14.14,0,0,1-.09-.08.11.11,0,0,1,0-.11L267.08,195.08a.5.5,0,0,1,.45-.16l88.58,12.45a.71.71,0,0,0,.64-.24l10-11.15a.74.74,0,0,1,.62-.24l32.7,4.44a.49.49,0,0,1,.36.29.44.44,0,0,1-.09.44l-9.86,10.82a.21.21,0,0,0,0,.24.23.23,0,0,0,.19.15l113.69,15.64a.43.43,0,0,0,.38-.14l17.33-19.55-1.49-10.73a1,1,0,0,1,.25-.82l60.74-67.2a.45.45,0,0,1,.36-.14L713.34,147a.22.22,0,0,1,.13.36L540.64,342.47l-50,23.23-18.51-2.47" transform="translate(-127.87 -128.68)"/><line id="aadd57cf-ae52-407e-af86-f49a038db4c0" data-name="Line 24" class="e6c91783-9090-4a18-9aa9-47b822283cfa" x1="228.63" y1="78.74" x2="179.84" y2="133.86"/><line id="ec228c30-b295-4b40-828e-2538077e82a9" data-name="Line 25" class="e6c91783-9090-4a18-9aa9-47b822283cfa" x1="147.47" y1="129.36" x2="196.62" y2="74.24"/><path id="bb5187b4-a371-4e76-beac-00072776d532" data-name="Path 24" class="b02aa90e-428f-4f2a-b1d8-581248aa4e45" d="M206.39,263.41l117.5,16.33a.33.33,0,0,1,.27.2.31.31,0,0,1-.06.32l-77.47,87.65" transform="translate(-127.87 -128.68)"/><line id="b70736f6-2993-4a42-b34c-7b15bbfc8918" data-name="Line 26" class="b02aa90e-428f-4f2a-b1d8-581248aa4e45" x1="159.12" y1="145.93" x2="81.05" y2="233.98"/><line id="f6494f0b-b595-45e7-9ddf-b42bf6d9f745" data-name="Line 27" class="e6c91783-9090-4a18-9aa9-47b822283cfa" x1="376.69" y1="99.12" x2="367.76" y2="109.11"/><line id="b808d887-6fdf-4fa7-ad44-5ac076be7818" data-name="Line 28" class="e6c91783-9090-4a18-9aa9-47b822283cfa" x1="338.53" y1="93.87" x2="329.69" y2="103.9"/><path id="b80c372b-2862-4047-a4fb-79698b60ec65" data-name="Path 25" class="b02aa90e-428f-4f2a-b1d8-581248aa4e45" d="M477,224l9.1-10.35a.44.44,0,0,1,.55-.11c1.68.81,9.23,5,7.09,12.76" transform="translate(-127.87 -128.68)"/><path id="b1a6948e-fc24-4ad8-bb3a-ce45fb2ed888" data-name="Path 26" class="e6c91783-9090-4a18-9aa9-47b822283cfa" d="M570.19,200.83l-10.71,12.09a.91.91,0,0,1-.78.28L522,208.09" transform="translate(-127.87 -128.68)"/><path id="ab5e488f-25ae-4ca8-96d9-18d3bc594cd0" data-name="Path 27" class="b02aa90e-428f-4f2a-b1d8-581248aa4e45" d="M628,135.43,581.7,187.87a.74.74,0,0,1-.65.25l-46.8-6.45" transform="translate(-127.87 -128.68)"/><line id="fab8fcab-a57f-4c0d-b124-aafd50dfe7a0" data-name="Line 29" class="e6c91783-9090-4a18-9aa9-47b822283cfa" x1="518.31" y1="9.24" x2="471.29" y2="62.41"/><line id="f7ffec44-07ad-4819-9314-626f6b60f4dd" data-name="Line 30" class="b02aa90e-428f-4f2a-b1d8-581248aa4e45" x1="516.6" y1="96.61" x2="449.12" y2="87.1"/><path id="bc0447f3-706d-40a6-9537-3b0f10aea72d" data-name="Path 28" class="e6c91783-9090-4a18-9aa9-47b822283cfa" d="M588.23,203.34l-36.14,40.73a.23.23,0,0,0,0,.21.24.24,0,0,0,.17.14l67.13,9.17" transform="translate(-127.87 -128.68)"/><path id="b778b15b-6126-4162-b99c-24ef6a1fdd0b" data-name="Path 29" class="b02aa90e-428f-4f2a-b1d8-581248aa4e45" d="M469.16,286.3,504.22,291a.25.25,0,0,1,.19.14.26.26,0,0,1,0,.24c-3,3.54-30.41,35.65-31.73,36.76s-6.38,5.49-16.25,4.75-46.19-5.9-48.47-6.34-10.49-2.46-5.14-8.55,45.83-51.35,45.83-51.35,9.16-12,20.1-10.69c9.78,1.2,21,2.82,23.27,3.14a.24.24,0,0,1,.18.16.22.22,0,0,1,0,.23L469,285.83a.27.27,0,0,0-.07.27A.28.28,0,0,0,469.16,286.3Z" transform="translate(-127.87 -128.68)"/><path id="b8f86a7d-09ce-4a76-b0df-8931c755eb3e" data-name="Path 30" class="a653d401-126a-48cb-b55e-c15e09e8c76f" d="M293.62,257.06l-3.06,3.55L279.07,259l3.3-3.58Z" transform="translate(-127.87 -128.68)"/><path id="b13ab893-c68f-44ed-a047-7a73a6d89460" data-name="Path 31" class="a653d401-126a-48cb-b55e-c15e09e8c76f" d="M297.17,253.05l-2.65,3L283,254.49l2.89-3.06Z" transform="translate(-127.87 -128.68)"/><path id="acff8bb8-1588-42bd-a0bd-d8d4ca174f5b" data-name="Path 32" class="a653d401-126a-48cb-b55e-c15e09e8c76f" d="M300.66,249.21l-2.48,2.94-11.49-1.59,2.73-3Z" transform="translate(-127.87 -128.68)"/><line id="aacd6441-6a53-4c26-972d-769e99665fb1" data-name="Line 31" class="e6c91783-9090-4a18-9aa9-47b822283cfa" x1="410.44" y1="130.57" x2="409.84" y2="131.21"/><path id="b8650d66-e0a7-4c1d-80e4-205f9a8883ac" data-name="Path 33" class="f2c0789e-2fc5-45dc-8406-bb72b8f5375a" d="M536.57,261.11l-2,2.09a.58.58,0,0,0-.11.59.59.59,0,0,0,.47.38L552,266.39a.64.64,0,0,0,.53-.21l2.64-3.13" transform="translate(-127.87 -128.68)"/><line id="b4ce3504-1d37-43cb-92c6-c87f1b2f0f22" data-name="Line 32" class="e6c91783-9090-4a18-9aa9-47b822283cfa" x1="427.84" y1="133.73" x2="428.4" y2="133.06"/><g id="a645fe78-4451-4fa7-8e07-75a7fd20d65c" data-name="WC" class="a7ce4fe3-b759-47b7-9919-b5e2a4907498"><text class="b1e0bd30-d868-4ba1-a57e-5d23571deaa1" transform="translate(441.42 34.94)">W</text><text class="aadb771b-a82b-44d2-ba5f-eefe2a117f66" transform="translate(453.35 34.94)">C</text></g><g id="fb82ccc7-ab95-453b-9c9b-0f39c57a52a3" data-name="BAR" class="a7ce4fe3-b759-47b7-9919-b5e2a4907498"><text class="aadb771b-a82b-44d2-ba5f-eefe2a117f66" transform="translate(310.23 180.73)">BAR</text></g><g id="a671b379-b09e-4040-8c3a-4107c792030f" data-name="SIDDEOMRÅDE" class="a7ce4fe3-b759-47b7-9919-b5e2a4907498"><text class="aadb771b-a82b-44d2-ba5f-eefe2a117f66" transform="translate(225.85 123.45)">SIDD</text><text class="b79f37fe-964d-4024-af62-8b3a4fd7ac16" transform="translate(257.08 123.45)">E</text><text class="aadb771b-a82b-44d2-ba5f-eefe2a117f66" transform="translate(264.7 123.45)"><tspan class="e37bb024-f078-4b99-9f1a-9ceab1fb7bde">O</tspan><tspan x="10.56" y="0">MRÅDE</tspan></text></g><g id="a20af7f3-8780-4c0d-ba7a-8ec1cc713328" data-name="KØKKEN" class="a7ce4fe3-b759-47b7-9919-b5e2a4907498"><text class="bab51595-1e14-4878-841b-ff8cbfa56758" transform="translate(58.37 189.07)">K</text><text class="aadb771b-a82b-44d2-ba5f-eefe2a117f66" transform="translate(66.14 189.07)">ØKKEN</text></g><g id="b7c9109b-f866-4dea-8aea-2df7be0a80ad" data-name="INDGANG" class="a7ce4fe3-b759-47b7-9919-b5e2a4907498"><text class="b402c760-7f7c-4827-8d3f-4c582e942a49" transform="translate(307.03 245.18) rotate(8.45)">IND</text><text class="a901aee3-f65a-4d9e-8c34-6211026b43ca" transform="translate(329.75 248.56) rotate(8.45)">G</text><text class="b402c760-7f7c-4827-8d3f-4c582e942a49" transform="translate(339.74 250.05) rotate(8.45)">ANG</text></g><path id="a33df690-1b03-4640-8af4-daf5bf1762eb" data-name="Path 34" class="a653d401-126a-48cb-b55e-c15e09e8c76f" d="M343.52,360c0-.42.64-.43.64-.43l23.19,3.29a.24.24,0,0,0,.21-.08l10.4-12a.24.24,0,0,0,0-.24.23.23,0,0,0-.19-.15l-43.18-6.11a.3.3,0,0,0-.21.07l-11,12a.23.23,0,0,0-.05.24.24.24,0,0,0,.2.15c2,.3,10.11,1.51,10.51,1.55s1,0,.92.61-.94.32-.94.32l-6-.87a.22.22,0,0,0-.21.07l-11.5,13a.24.24,0,0,0,.15.39l84.12,11.64a.24.24,0,0,0,.21-.08l11.55-13a.24.24,0,0,0,.05-.24.24.24,0,0,0-.19-.15c-5.78-.79-67.45-9.26-68.07-9.36S343.52,360.42,343.52,360Zm-1.31-7.18a1.13,1.13,0,1,1,1.14,1.11h0A1.11,1.11,0,0,1,342.21,352.82ZM397,373.11l3.08-1.25h.14v7h-1.56v-4.91l-1.66.62Z" transform="translate(-127.87 -128.68)"/><path id="bdd36959-bfba-47de-9ba0-9a09a26dda3c" data-name="Path 35" class="a653d401-126a-48cb-b55e-c15e09e8c76f" d="M285.81,352.64c-.55-.09-.78-.09-.78-.61s.88-.37.88-.37l35.79,4.9a.25.25,0,0,0,.24-.09l11.13-12.29a.1.1,0,0,0,0-.09.08.08,0,0,0-.07,0l-51.51-7.29a.45.45,0,0,0-.41.14l-15.21,17.16a.71.71,0,0,0-.17.5l.42,10a.45.45,0,0,0,.39.42l48.16,6.61a.27.27,0,0,0,.24-.09l11.46-13.08a.16.16,0,0,0,0-.15.17.17,0,0,0-.12-.1C322.78,357.74,286.33,352.74,285.81,352.64Zm32.26-7.43a2.14,2.14,0,0,1,1.64.53,2.06,2.06,0,0,1,.67,1.57,2.49,2.49,0,0,1-.74,1.74l-1.53,1.74h2.33v1.43h-4.77v-.87l2.75-3.27a1.27,1.27,0,0,0,.39-.75c0-.37-.34-.64-.81-.64a1,1,0,0,0-.93,1l-1.43-.21a2.32,2.32,0,0,1,.74-1.62,2.39,2.39,0,0,1,1.69-.62Zm-6.23,19.26a1.12,1.12,0,1,1,1.13-1.12,1.13,1.13,0,0,1-1.13,1.12Z" transform="translate(-127.87 -128.68)"/><path id="ff196203-3f78-43f7-b9e6-3732c9465c87" data-name="Path 36" class="a653d401-126a-48cb-b55e-c15e09e8c76f" d="M267,249.8v-1.59l-1.13,1.59Z" transform="translate(-127.87 -128.68)"/><path id="f2a91b8a-c7c0-4cdd-9d58-f50467951bf6" data-name="Path 37" class="a653d401-126a-48cb-b55e-c15e09e8c76f" d="M317.34,205.19l-18.75-2.7-46.92,52.58,19.39,2.61Zm-19.73,6.54a3.49,3.49,0,1,1-3.53,3.49,3.49,3.49,0,0,1,3.53-3.49Zm-28,39.43h-1.09v1.27H267v-1.27h-3.28v-.48l3.77-5.11h1.08v4.23h1.1Z" transform="translate(-127.87 -128.68)"/><path id="b0769249-bfb7-47dc-a57e-7c4ecc415997" data-name="Path 38" class="a653d401-126a-48cb-b55e-c15e09e8c76f" d="M301.62,248.12l27-30.43c.61-.68.88-1,1.3-.72s-.3,1.11-.3,1.11l-37.8,42.73,11.9,1.56,39.38-44.61s5.71-7.2-5.43-9.4-18.6,6.1-18.6,6.1l-28.82,32.13Zm.32,11.73a3.08,3.08,0,0,1-2.52-1.35l1.2-.82a1.53,1.53,0,0,0,1.24.72,1.17,1.17,0,0,0,.88-.28,1.08,1.08,0,0,0,.39-.83,1.05,1.05,0,0,0-.35-.78,1.07,1.07,0,0,0-.82-.27,2.17,2.17,0,0,0-1.45.59l-.88-.52.61-3.49h4v1.42h-2.75l-.23,1a2.12,2.12,0,0,1,1.18-.32,2.26,2.26,0,0,1,1.65.67,2.22,2.22,0,0,1,.63,1.66,2.57,2.57,0,0,1-.83,1.85,2.63,2.63,0,0,1-1.93.71Z" transform="translate(-127.87 -128.68)"/><path id="ae47a252-9ab0-4bb9-84b4-effc17b3f684" data-name="Path 39" class="a653d401-126a-48cb-b55e-c15e09e8c76f" d="M328,324.67l9.69,10.42a.52.52,0,0,0,.59.09l74.79-43a.28.28,0,0,0,.12-.38.27.27,0,0,0-.22-.14l-17.63-2.55a.68.68,0,0,0-.42.08L328,324.35a.19.19,0,0,0-.05.27l.05.05Zm11.36,4.93a2.63,2.63,0,0,1-2.28-1.11l1-.87a1.53,1.53,0,0,0,1.17.59c.68,0,1.1-.38,1.1-.88s-.44-.87-1.1-.87h-.7v-1.14h.29c.75,0,1.18-.4,1.12-.87s-.36-.57-.81-.57a1.51,1.51,0,0,0-1.14.52l-.81-1a2.9,2.9,0,0,1,2.17-.94,2,2,0,0,1,2.2,1.91,1.54,1.54,0,0,1-.88,1.34,1.79,1.79,0,0,1,1.23,1.74c0,1.24-1.1,2.11-2.63,2.11Z" transform="translate(-127.87 -128.68)"/><path id="ad0bdc53-f45f-438c-8296-7fd4943b79d8" data-name="Path 40" class="a653d401-126a-48cb-b55e-c15e09e8c76f" d="M551,256.72a1,1,0,0,0,.77-.24,1,1,0,0,0,.35-.72,1.13,1.13,0,0,0-1.27-1,1.15,1.15,0,0,0-1,1,1,1,0,0,0,.36.72A1,1,0,0,0,551,256.72Z" transform="translate(-127.87 -128.68)"/><path id="a6069a30-b2d8-4dbd-9e9e-3c4dc4063fea" data-name="Path 41" class="a653d401-126a-48cb-b55e-c15e09e8c76f" d="M537.81,259.14l63.27,8.78a.74.74,0,0,0,.64-.24l10-11a.43.43,0,0,0,.1-.43.44.44,0,0,0-.35-.28l-62.93-8.56a.34.34,0,0,0-.29.11ZM551,251c1.24,0,2.24.69,2.24,1.74a1.46,1.46,0,0,1-.81,1.37,1.75,1.75,0,0,1,1.3,1.75,2.8,2.8,0,0,1-5.46,0,1.75,1.75,0,0,1,1.32-1.75,1.47,1.47,0,0,1-.83-1.37c0-1,1-1.74,2.24-1.74Z" transform="translate(-127.87 -128.68)"/><path id="a7f282ce-687e-425b-88ab-54ef4d518338" data-name="Path 42" class="a653d401-126a-48cb-b55e-c15e09e8c76f" d="M551,253.64a.65.65,0,0,0,.65-.3.67.67,0,0,0,0-.72.84.84,0,0,0-1.18-.12,1.36,1.36,0,0,0-.12.12.67.67,0,0,0,0,.72A.65.65,0,0,0,551,253.64Z" transform="translate(-127.87 -128.68)"/><path id="ed5caad5-c715-4278-94dd-b52df547d0cf" data-name="Path 43" class="a653d401-126a-48cb-b55e-c15e09e8c76f" d="M677.89,146.27a.6.6,0,0,0-.53.2L650,178.2s-.65.88-1.1.43.16-1,.33-1.17,12.62-14.61,14.33-16.57a.18.18,0,0,0,0-.16.17.17,0,0,0-.13-.1L651.52,159a.65.65,0,0,0-.58.21L619.88,194a.15.15,0,0,0,0,.17.15.15,0,0,0,.12.1l29.6,4a.57.57,0,0,0,.52-.19l43.43-49.12a.3.3,0,0,0,.05-.3.31.31,0,0,0-.24-.19Zm-25,17.72a1.11,1.11,0,0,1,1,.68,1.08,1.08,0,0,1-.24,1.19,1.11,1.11,0,0,1-1.2.24,1.09,1.09,0,0,1,.4-2.1ZM655,178.87a7.51,7.51,0,0,1-6.39,3.71h-.15a4.65,4.65,0,0,1-5-3.48,3.33,3.33,0,0,1,.55-2.38.62.62,0,0,1,.86-.13.61.61,0,0,1,.13.85h0a2.27,2.27,0,0,0-.3,1.51,3.56,3.56,0,0,0,3.88,2.37,6.28,6.28,0,0,0,5.35-3.11.59.59,0,0,1,.39-.3.64.64,0,0,1,.77.47h0a.61.61,0,0,1-.1.47Zm25.36-21.43h-1.76l2.33-5.43H678.1v-1.43h5.08v.16Z" transform="translate(-127.87 -128.68)"/><path id="b482265a-ddd9-415c-b84b-bdf83226ea43" data-name="Path 44" class="a653d401-126a-48cb-b55e-c15e09e8c76f" d="M664.78,159.49l11.35-13.12a.22.22,0,0,0,0-.22A.2.2,0,0,0,676,146l-27.79-3.79a.63.63,0,0,0-.54.2l-43.44,49.14a.35.35,0,0,0-.06.31.31.31,0,0,0,.24.19L618,194a.66.66,0,0,0,.57-.21l32.34-36,13.35,2a.64.64,0,0,0,.55-.22ZM663,150.93a1.09,1.09,0,0,1,1,.67,1.08,1.08,0,0,1-.24,1.19,1.09,1.09,0,1,1-.79-1.86ZM616.2,190.3c-1.58,0-2.71-1.31-2.71-3.3,0-2.18,1.11-3.78,3-3.78a2.44,2.44,0,0,1,2.25,1.35l-1.22.73a1.11,1.11,0,0,0-1-.65c-.81,0-1.35.66-1.43,1.65a2.06,2.06,0,0,1,1.44-.51,2.19,2.19,0,0,1,1.63.59,2.13,2.13,0,0,1,.68,1.57,2.35,2.35,0,0,1-2.59,2.35Z" transform="translate(-127.87 -128.68)"/><path id="ba05e17d-de4d-450c-9d4c-4e9d1b95ed86" data-name="Path 45" class="a653d401-126a-48cb-b55e-c15e09e8c76f" d="M616.26,187a.9.9,0,0,0-.72.21.89.89,0,0,0-.33.66,1,1,0,0,0,1.13.92,1,1,0,0,0,.92-.92.94.94,0,0,0-.31-.65.91.91,0,0,0-.69-.22Z" transform="translate(-127.87 -128.68)"/><path id="f980e9d1-0c3b-4e69-ae84-0b94ae50eb40" data-name="Path 46" class="a653d401-126a-48cb-b55e-c15e09e8c76f" d="M529.12,297.22a.9.9,0,0,0-.71.26,1,1,0,0,0,.07,1.39.87.87,0,0,0,.74.18,1,1,0,0,0,.71-.27.9.9,0,0,0-.07-1.37,1,1,0,0,0-.74-.19Z" transform="translate(-127.87 -128.68)"/><path id="ae4852fa-285c-44dd-8ef6-d2a84a2e2fa2" data-name="Path 47" class="a653d401-126a-48cb-b55e-c15e09e8c76f" d="M534,306.35a.1.1,0,0,1,.1-.1l2.44-.13a.51.51,0,0,0,.48-.54l-1.16-13.83a.5.5,0,0,0-.16-.34.51.51,0,0,0-.37-.11l-13.77,1.11a.47.47,0,0,0-.33.17.49.49,0,0,0-.12.37l1.21,13.57a.51.51,0,0,0,.53.45l2.64-.15a.12.12,0,0,1,.11.09l3.13,31.71a.49.49,0,0,0,.53.45l7.57-.59a.52.52,0,0,0,.35-.18.5.5,0,0,0,.12-.37Zm-4.69-3.49a2.49,2.49,0,0,1-2.35-1.2l1.16-.79a1.15,1.15,0,0,0,1.06.56c.81-.05,1.31-.75,1.32-1.74a2.13,2.13,0,0,1-1.41.6,2.17,2.17,0,0,1-1.66-.49,2.14,2.14,0,0,1-.79-1.53,2.27,2.27,0,0,1,.66-1.78,2.36,2.36,0,0,1,1.78-.71c1.57-.1,2.8,1.13,2.93,3.08.15,2.19-.85,3.89-2.7,4Z" transform="translate(-127.87 -128.68)"/></g></svg>